<svg width="24" height="24" viewBox="0 0 24 24" fill="none" xmlns="http://www.w3.org/2000/svg">
<path d="M8.29725 20.7557C7.14142 20.2596 6.13433 19.5823 5.276 18.724C4.41767 17.8657 3.74042 16.8586 3.24425 15.7027C2.74808 14.5471 2.5 13.3128 2.5 12C2.5 10.6872 2.74808 9.45292 3.24425 8.29725C3.74042 7.14142 4.41767 6.13592 5.276 5.28075C6.13433 4.42558 7.14142 3.74833 8.29725 3.249C9.45292 2.74967 10.6872 2.5 12 2.5C13.3128 2.5 14.5471 2.74967 15.7027 3.249C16.8586 3.74833 17.8641 4.42558 18.7193 5.28075C19.5744 6.13592 20.2517 7.14142 20.751 8.29725C21.2503 9.45292 21.5 10.6872 21.5 12C21.5 13.3128 21.2503 14.5471 20.751 15.7027C20.2517 16.8586 19.5744 17.8657 18.7193 18.724C17.8641 19.5823 16.8586 20.2596 15.7027 20.7557C14.5471 21.2519 13.3128 21.5 12 21.5C10.6872 21.5 9.45292 21.2519 8.29725 20.7557ZM12 20C14.2167 20 16.1042 19.2224 17.6625 17.6673C19.2208 16.1121 20 14.223 20 12C20 9.78333 19.2208 7.89583 17.6625 6.3375C16.1042 4.77917 14.2167 4 12 4C9.777 4 7.88792 4.77917 6.33275 6.3375C4.77758 7.89583 4 9.78333 4 12C4 14.223 4.77758 16.1121 6.33275 17.6673C7.88792 19.2224 9.777 20 12 20ZM9.577 15.5865L10.6213 14.5328L8.848 12.75H15.1615L13.3885 14.5328L14.4423 15.5865L18.0095 12L14.4423 8.423L13.3885 9.477L15.1615 11.25H8.848L10.6213 9.477L9.577 8.423L6 12L9.577 15.5865Z" fill="#3E5C8C"/>
</svg>
