<svg width="24" height="24" viewBox="0 0 24 24" fill="none" xmlns="http://www.w3.org/2000/svg">
<path d="M8.66925 20.0193L2.98075 14.3308C2.82058 14.1698 2.70042 13.9927 2.62025 13.7995C2.54008 13.6062 2.5 13.4053 2.5 13.197C2.5 12.9887 2.54008 12.7884 2.62025 12.5963C2.70042 12.4039 2.82058 12.2276 2.98075 12.0673L8.63475 6.42876L5.86925 3.70201L7.0345 2.49051L16.6125 12.0778C16.7722 12.2374 16.8895 12.4136 16.9645 12.6063C17.0395 12.7989 17.077 12.9997 17.077 13.2085C17.077 13.4172 17.0395 13.6178 16.9645 13.8105C16.8895 14.0032 16.7718 14.1798 16.6115 14.3405L10.9328 20.0193C10.7724 20.1794 10.5961 20.2996 10.4037 20.3798C10.2116 20.4599 10.0113 20.5 9.803 20.5C9.59467 20.5 9.39383 20.4599 9.2005 20.3798C9.00733 20.2996 8.83025 20.1794 8.66925 20.0193ZM9.79625 7.59026L4.3885 12.998C4.35 13.0365 4.32433 13.075 4.3115 13.1135C4.29867 13.152 4.29225 13.1904 4.29225 13.2288H15.3C15.3 13.1904 15.2936 13.152 15.2807 13.1135C15.2679 13.075 15.2423 13.0365 15.2038 12.998L9.79625 7.59026ZM19.5595 20.5C19.0237 20.5 18.5731 20.3117 18.2078 19.935C17.8423 19.5582 17.6595 19.0965 17.6595 18.55C17.6595 18.1448 17.7544 17.7583 17.9443 17.3903C18.1339 17.0224 18.3608 16.6693 18.625 16.3308L19.5595 15.1538L20.5443 16.3308C20.7981 16.6693 21.0224 17.0224 21.2173 17.3903C21.4121 17.7583 21.5095 18.1448 21.5095 18.55C21.5095 19.0965 21.3185 19.5582 20.9365 19.935C20.5545 20.3117 20.0955 20.5 19.5595 20.5Z" fill="#3E5C8C"/>
</svg>
