<svg width="56" height="56" viewBox="0 0 56 56" fill="none" xmlns="http://www.w3.org/2000/svg">
<path d="M0 28C0 12.536 12.536 0 28 0V0C43.464 0 56 12.536 56 28V28C56 43.464 43.464 56 28 56V56C12.536 56 0 43.464 0 28V28Z" fill="url(#paint0_linear_226_734)"/>
<path d="M32.2665 31.7333L33.7999 26.2L29.0665 22.9333L27.5332 28.4667L32.2665 31.7333ZM17.3332 37.1L16.2332 36.5667C15.5443 36.2778 15.0777 35.7833 14.8332 35.0833C14.5888 34.3833 14.6221 33.6889 14.9332 33L17.3332 27.8V37.1ZM22.6665 40C21.9332 40 21.3054 39.7333 20.7832 39.2C20.261 38.6667 19.9999 38.0333 19.9999 37.3V29.3333L23.5665 39.1333C23.6332 39.2889 23.6888 39.4389 23.7332 39.5833C23.7777 39.7278 23.8554 39.8667 23.9665 40H22.6665ZM29.5332 39.8333C28.8443 40.0778 28.1554 40.0444 27.4665 39.7333C26.7777 39.4222 26.311 38.9222 26.0665 38.2333L20.1665 21.9333C19.9221 21.2444 19.9554 20.5611 20.2665 19.8833C20.5777 19.2056 21.0777 18.7444 21.7665 18.5L31.7999 14.8333C32.4888 14.5889 33.1721 14.6222 33.8499 14.9333C34.5277 15.2444 34.9888 15.7444 35.2332 16.4333L41.1665 32.7333C41.411 33.4222 41.3777 34.1056 41.0665 34.7833C40.7554 35.4611 40.2554 35.9222 39.5665 36.1667L29.5332 39.8333ZM28.5999 37.3333L38.6665 33.6667L32.6999 17.3333L22.6665 21L28.5999 37.3333Z" fill="black"/>
<defs>
<linearGradient id="paint0_linear_226_734" x1="6.08696" y1="13.3913" x2="33.1582" y2="59.3488" gradientUnits="userSpaceOnUse">
<stop stop-color="#A4F5EC"/>
<stop offset="0.524038" stop-color="#B6E4A2"/>
<stop offset="1" stop-color="#DDF698"/>
</linearGradient>
</defs>
</svg>
