<svg width="192" height="110" viewBox="0 0 192 110" fill="none" xmlns="http://www.w3.org/2000/svg">
<path fill-rule="evenodd" clip-rule="evenodd" d="M26.2578 5.13119C27.3139 5.13119 27.7672 6.18736 27.7672 7.84642V19.3168C27.7672 25.3512 24.7494 25.5031 23.5415 24.8991C22.032 24.1444 21.7306 21.5798 21.7306 19.165V7.84751C21.7306 6.18736 22.3346 5.13228 23.3907 5.13228V4.5283H17.2034V5.13228C18.2595 5.13228 18.7128 6.18845 18.7128 7.84751V20.3741C18.7128 22.6371 20.0715 26.26 23.24 26.5603C26.4085 26.7121 28.5219 24.7494 28.5219 19.1661V7.84751C28.5219 6.18736 29.1248 5.13228 30.0314 5.13228V4.5283H26.2578V5.13119ZM37.2738 4.5272H31.3879V5.13119C32.4441 5.13119 33.048 6.18736 33.048 7.84642V22.636C33.048 24.2962 32.4451 25.3513 31.3879 25.3513V25.9552H37.726C39.0847 25.9552 40.4423 25.2027 41.801 23.5404C43.9133 20.6733 44.5173 14.4871 43.4612 10.7135C42.405 5.887 39.9901 4.5272 37.2738 4.5272ZM40.2927 20.8251C39.9912 22.3335 39.5379 25.0509 36.8216 25.0509C36.0669 25.0509 36.0669 24.7484 36.0669 23.0882V7.39425C36.0669 5.73409 36.0669 5.58337 36.8216 5.58337C37.8778 5.58337 38.6325 5.43156 39.5379 7.24353C41.0463 10.1106 41.0463 17.0516 40.2927 20.8251ZM49.95 25.052C49.0445 24.9002 48.8938 24.448 48.8938 22.9375V15.695C51.0061 15.8447 51.4594 16.4476 52.0623 20.373H52.3638V9.96094H52.0623C51.4583 13.8842 51.0061 14.3363 48.8938 14.6389V7.39425C48.8938 5.73409 49.0445 5.43155 49.6485 5.58337H51.3087C54.3275 5.73519 54.4783 9.96094 54.629 11.0171H55.0823V4.5272H44.3677V5.13119C45.2731 5.13119 45.876 6.18736 45.876 7.84642V22.636C45.876 24.2962 45.272 25.3513 44.3677 25.3513V25.9552H55.233L55.9877 19.4664H55.5344C54.1757 23.9958 52.6663 25.3523 49.95 25.052ZM15.695 0.151817L9.35695 0.00108966V1.20798H11.3186L2.11342 25.052H0V26.2589H5.58337V25.052H3.31922L6.18627 17.9592H11.7696V25.052H9.20404V26.2589H18.1077V25.052H15.6939V0.151817H15.695ZM11.7707 17.0516H6.64063L11.7707 3.77249V17.0516ZM129.326 0H119.366V1.20689H121.781V25.0509H119.066V26.2578H128.271V25.0509H125.707V14.6389H129.63C130.989 14.6389 132.045 13.2802 132.045 12.3758V2.26415C132.044 1.50943 131.137 0 129.326 0ZM128.27 12.828C128.27 13.2802 127.97 13.5805 127.518 13.5805H125.707V1.20798H127.518C127.97 1.20798 128.27 1.50943 128.27 1.81088V12.828ZM148.039 16.903C149.095 16.903 149.55 17.9592 149.55 19.6182V23.6922C149.55 24.1444 149.55 24.8991 148.795 25.3523C148.343 25.6549 147.739 25.6549 147.287 25.6549C146.984 25.6549 146.532 25.6549 146.228 25.2027C145.324 24.5987 144.872 23.3918 144.419 21.2773C144.117 19.9208 143.965 17.6556 143.965 15.3914C143.965 12.9765 144.117 10.7135 144.419 9.35695C144.872 7.24243 145.324 6.03554 146.228 5.43155C146.515 5.1578 146.891 4.99715 147.287 4.97938C148.493 4.97938 151.21 7.0939 152.114 11.7696H152.568V4.22467H152.114C151.814 4.82866 151.814 5.88591 150.758 5.58337C150.154 5.28192 148.947 4.37648 147.287 4.22467C146.08 4.22467 144.72 4.82865 143.513 6.18627C141.702 7.99715 140.798 11.62 140.798 15.3914C140.798 19.0132 141.702 22.636 143.513 24.5987C144.72 25.8045 146.08 26.5592 147.287 26.5592C147.891 26.5592 148.493 26.5592 149.095 26.4074C149.55 26.2578 152.114 25.6549 152.568 24.8991V19.6172C152.568 17.957 153.172 16.9019 154.229 16.9019V16.2979H148.04V16.903H148.039ZM163.281 5.13119C164.337 5.13119 164.791 6.18736 164.791 7.84642V19.3168C164.791 25.3512 161.772 25.5031 160.566 24.8991C159.055 24.1444 158.755 21.5798 158.755 19.165V7.84751C158.755 6.18736 159.359 5.13228 160.415 5.13228V4.5283H154.229V5.13228C155.285 5.13228 155.737 6.18845 155.737 7.84751V20.3741C155.737 22.6371 157.096 26.26 160.264 26.5603C163.434 26.7121 165.546 24.7494 165.546 19.1661V7.84751C165.546 6.18736 166.15 5.13228 167.057 5.13228V4.5283H163.281V5.13119ZM174.297 25.052C173.241 24.9002 173.241 24.448 173.241 22.9375V15.695C175.355 15.8447 175.656 16.4476 176.26 20.373H176.712V9.96094H176.26C175.656 13.8842 175.355 14.3363 173.241 14.6389V7.39425C173.241 5.73409 173.392 5.43155 173.995 5.58337H175.656C178.674 5.73519 178.825 9.96094 178.975 11.0171H179.277V4.5272H168.562V5.13119C169.618 5.13119 170.222 6.18736 170.222 7.84642V22.636C170.222 24.2962 169.618 25.3513 168.562 25.3513V25.9552H179.428L180.332 19.4664H179.728C178.371 23.9958 177.014 25.3523 174.297 25.052ZM180.635 4.5272V10.8653H181.089C181.239 10.1106 181.239 8.60224 182.145 6.94208C183.202 5.1312 184.408 5.58337 184.861 5.58337V22.636C184.861 24.2962 184.257 25.3513 183.352 25.3513V25.9552H189.389V25.3513C188.482 25.3513 187.878 24.2951 187.878 22.636V5.58337C188.331 5.58337 189.539 5.1312 190.594 6.94208C191.5 8.60224 191.5 10.1095 191.652 10.8653H191.952V4.5272H180.635ZM65.9465 19.1661L62.0232 4.5272H56.7413V5.13119C58.1 5.13119 58.5522 5.58337 58.5522 7.84642V22.636C58.5522 24.2962 58.0989 25.3513 56.892 25.3513V25.9552H61.1178V25.3513C60.0616 25.3513 59.4577 24.2951 59.4577 22.636V7.24353L64.5878 25.9563H65.041L70.3218 7.24353V22.6371C70.3218 24.2973 69.719 25.3523 68.6617 25.3523V25.9563H75.3023V25.3523C74.2462 25.3523 73.6422 24.2962 73.6422 22.6371V7.84751C73.6422 6.18736 74.2462 5.13228 75.3023 5.13228V4.5283H70.1711L65.9465 19.1661ZM102.012 24.1444L98.3905 15.3914C99.4489 14.9392 100.353 14.1845 100.957 12.5244C101.712 10.5638 101.26 7.99715 100.505 6.63845C99.4489 4.97829 97.638 4.52611 96.1285 4.52611H90.2426V5.1301C91.1481 5.1301 91.7521 6.18627 91.7521 7.84533V22.6349C91.7521 24.2951 91.1481 25.3502 90.2426 25.3502H90.3934V25.9541H96.2793V25.3502C95.3738 25.3502 94.7709 24.294 94.7709 22.6349V15.9943H95.2231L99.1463 25.9541H102.92V25.3502C102.616 25.3523 102.464 25.5042 102.012 24.1444ZM98.0891 12.5255C97.4851 15.3925 95.6742 14.9403 94.7688 14.9403V6.94317C94.7688 6.03664 95.2209 5.58446 95.5224 5.58446C97.0318 5.28301 97.6358 6.33918 97.9361 7.54716C98.2409 8.29969 98.3905 11.0171 98.0891 12.5255ZM87.8278 23.844L82.9991 4.5272H82.5458L77.8679 23.24C77.4146 25.0509 76.9625 25.3523 76.5103 25.3523V25.9563H80.2828V25.3523C78.9252 25.3523 78.4719 24.2962 78.9252 22.6371L79.5292 19.7701H83.9056L84.8111 23.3918C85.1125 25.052 83.9056 25.3523 83.1509 25.3523V25.9563H89.0368V25.3523C88.7332 25.3523 88.1292 25.2027 87.8278 23.844ZM79.8295 18.5621L81.6404 10.7135L83.602 18.5621H79.8295ZM133.552 5.13119C134.759 5.13119 135.363 6.18736 135.363 7.84642V22.636C135.363 24.2962 134.759 25.3513 133.552 25.3513V25.9552H140.041V25.3513C138.834 25.3513 138.381 24.2951 138.381 22.636V7.84751C138.381 6.18736 138.833 5.13228 140.041 5.13228V4.5283H133.552V5.13119ZM109.709 12.9776C107.294 11.7707 106.539 10.1106 106.539 8.75405C106.539 7.99933 106.842 5.28192 108.654 5.28192C111.369 5.28192 112.276 9.50658 112.728 11.1667H113.18V4.22576H112.728C112.425 4.82975 112.425 5.28192 111.973 5.28192C110.917 5.28192 110.011 4.22576 107.899 4.22576C106.088 4.22576 103.976 5.88701 103.976 10.1106C103.976 12.0733 104.58 14.7885 106.995 16.4487C110.314 18.8635 111.522 19.7701 111.522 21.5809C111.522 22.3335 111.222 25.5042 108.503 25.5042C106.541 25.5042 105.184 22.3346 105.032 21.1266L104.58 18.8635H104.128V26.5603H104.58C104.58 25.9563 104.732 25.5042 104.88 25.5042C105.939 25.5042 107.747 26.5603 108.954 26.5603C113.483 26.5603 114.236 22.4864 114.236 20.3741C114.236 17.3552 112.88 14.6389 109.709 12.9776Z" fill="black"/>
<path d="M89.1267 60.8561V57.4313H90.8391V55.7189H92.5514V54.0065H90.8391V52.2941H89.1267V48.8694H92.5514V52.2941H94.2638V54.0065H95.9762V52.2941H97.6886V48.8694H101.113V52.2941H99.401V54.0065H97.6886V55.7189H99.401V57.4313H101.113V60.8561H97.6886V57.4313H95.9762V55.7189H94.2638V57.4313H92.5514V60.8561H89.1267Z" fill="black"/>
<g clip-path="url(#clip0_4_41)">
<path d="M91.3311 88.0641V106.565H88.6641V90.7126H84.1631C80.2982 90.6585 77.2322 93.5858 77.1777 97.3356C77.2326 101.195 80.371 104.321 84.2178 104.305C85.1432 104.321 85.9782 104.156 86.7764 103.799L87.0303 103.68H87.3389V106.41C86.3408 106.778 85.2886 106.971 84.1816 106.951C78.9375 106.974 74.6012 102.677 74.5283 97.3336C74.6011 92.1509 78.9375 87.992 84.1816 88.0641H91.3311ZM114.086 87.7575C117.243 87.8297 120.038 89.2897 121.762 91.7585L119.565 93.2682C118.332 91.5059 116.317 90.461 114.067 90.4069C110.184 90.461 107.027 93.5725 107.063 97.362C107.045 99.2199 107.752 100.965 109.077 102.277C110.402 103.592 112.162 104.313 114.067 104.306C116.789 104.322 119.275 102.729 120.382 100.248L122.813 101.327C121.271 104.767 117.824 106.974 114.067 106.951C111.455 106.962 109.023 105.965 107.19 104.145C105.358 102.329 104.377 99.9136 104.396 97.362C104.359 92.1434 108.679 87.8296 114.086 87.7575ZM71.9873 100.632C72.0054 102.296 71.3522 103.855 70.1729 105.019C68.9933 106.178 67.4327 106.807 65.7998 106.795C63.8581 106.811 62.1157 105.891 60.9727 104.45C60.8275 104.632 60.6641 104.809 60.501 104.974C59.3215 106.162 57.7431 106.809 56.0557 106.795C54.441 106.807 52.9348 106.183 51.7734 105.036C50.6122 103.859 49.977 102.288 49.9951 100.632V88.1364H52.6621V100.651C52.644 101.608 53.0073 102.504 53.6787 103.171C54.3138 103.808 55.1486 104.156 56.0557 104.149C57.0355 104.156 57.9429 103.79 58.6143 103.116C59.2673 102.462 59.6119 101.589 59.5938 100.66V88.1364H62.2432V100.602C62.2974 102.574 63.8764 104.163 65.7998 104.149C66.7434 104.156 67.615 103.799 68.2861 103.141C68.9573 102.478 69.3379 101.586 69.3379 100.632V88.1364L71.9873 88.1354V100.632ZM97.7725 83.3063V88.0641H104.142V90.7126H97.7725V100.975C97.7543 101.777 98.0628 102.547 98.6436 103.143C99.2786 103.783 100.114 104.14 101.003 104.149H104.776V106.795H101.003C99.3698 106.778 97.8453 106.134 96.7383 104.981C95.6498 103.871 95.0688 102.426 95.123 100.943V83.3063H97.7725ZM46.6201 88.2262V90.8747H34.208C33.5183 90.8747 32.9014 91.1455 32.4297 91.6139C31.9762 92.0643 31.7403 92.6552 31.7402 93.3092C31.7402 94.0049 31.9759 94.6361 32.4297 95.0866C32.8469 95.4991 33.4096 95.7227 34.0264 95.7174H41.7383C44.8592 95.7426 47.2551 98.0453 47.3096 101.129C47.2551 104.127 44.7503 106.6 41.7383 106.639H29V103.992H41.7207C43.2991 103.972 44.6235 102.662 44.6416 101.129C44.6234 99.5392 43.3894 98.3767 41.7383 98.3639H34.0449C32.7203 98.3748 31.4675 97.8755 30.542 96.9547C29.5806 95.9961 29.0727 94.6912 29.0908 93.3092C29.0727 91.974 29.581 90.7126 30.5244 89.7575C31.5042 88.7847 32.7925 88.2263 34.1895 88.2262H46.6201ZM127.332 83.3063V89.7936C128.838 88.4422 130.762 87.7215 132.739 87.7575C137.221 87.6854 140.941 91.2714 141.014 95.7907V106.565H138.347V95.8141C138.292 92.7795 135.806 90.353 132.739 90.4069C131.306 90.3709 129.945 90.9293 128.911 91.9381C127.877 92.9654 127.314 94.326 127.332 95.7731V106.565H124.664V83.3063H127.332ZM138.891 83.1618C140.034 83.1618 140.996 84.045 140.996 85.234C140.996 86.4235 140.034 87.3073 138.891 87.3073C137.748 87.3071 136.768 86.4234 136.768 85.234C136.768 84.0451 137.748 83.162 138.891 83.1618ZM138.891 83.5045C137.929 83.5048 137.186 84.2434 137.186 85.234C137.186 86.2251 137.929 86.9643 138.891 86.9645C139.834 86.9645 140.579 86.2252 140.579 85.234C140.579 84.2432 139.834 83.5045 138.891 83.5045ZM139 84.0456C139.562 84.0456 139.853 84.2437 139.853 84.7301C139.852 85.1444 139.581 85.3424 139.236 85.3786L139.907 86.4235H139.508L138.873 85.3971H138.456V86.4235H138.074V84.0456H139ZM138.456 84.3512V85.0905H138.892C139.2 85.0905 139.472 85.0722 139.472 84.694C139.472 84.4058 139.199 84.3512 138.945 84.3512H138.456Z" fill="black"/>
<path d="M144.879 88.6045H162.952V106.566H144.879V88.6045Z" fill="#FE0101"/>
<path d="M161.7 95.3226H156.184V89.8659H151.629V95.3226H145.968V99.851H151.629V105.472H156.184V99.851H161.7L161.7 95.3226Z" fill="#FFFEFF"/>
</g>
<defs>
<clipPath id="clip0_4_41">
<rect width="133.952" height="29" fill="white" transform="translate(29 80.5684)"/>
</clipPath>
</defs>
</svg>
