<svg width="378" height="29" viewBox="0 0 378 29" fill="none" xmlns="http://www.w3.org/2000/svg">
<path fill-rule="evenodd" clip-rule="evenodd" d="M26.2578 6.34695C27.3139 6.34695 27.7672 7.40312 27.7672 9.06218V20.5326C27.7672 26.567 24.7494 26.7188 23.5415 26.1148C22.032 25.3601 21.7306 22.7956 21.7306 20.3807V9.06327C21.7306 7.40312 22.3346 6.34804 23.3907 6.34804V5.74406H17.2034V6.34804C18.2595 6.34804 18.7128 7.40421 18.7128 9.06327V21.5898C18.7128 23.8529 20.0715 27.4757 23.24 27.7761C26.4085 27.9279 28.5219 25.9652 28.5219 20.3818V9.06327C28.5219 7.40312 29.1248 6.34804 30.0314 6.34804V5.74406H26.2578V6.34695ZM37.2738 5.74296H31.3879V6.34695C32.4441 6.34695 33.048 7.40312 33.048 9.06218V23.8518C33.048 25.5119 32.4451 26.567 31.3879 26.567V27.171H37.726C39.0847 27.171 40.4423 26.4185 41.801 24.7561C43.9133 21.8891 44.5173 15.7028 43.4612 11.9292C42.405 7.10276 39.9901 5.74296 37.2738 5.74296ZM40.2927 22.0409C39.9912 23.5492 39.5379 26.2667 36.8216 26.2667C36.0669 26.2667 36.0669 25.9641 36.0669 24.304V8.61001C36.0669 6.94985 36.0669 6.79913 36.8216 6.79913C37.8778 6.79913 38.6325 6.64731 39.5379 8.45929C41.0463 11.3263 41.0463 18.2673 40.2927 22.0409ZM49.95 26.2677C49.0445 26.1159 48.8938 25.6638 48.8938 24.1532V16.9108C51.0061 17.0604 51.4594 17.6633 52.0623 21.5887H52.3638V11.1767H52.0623C51.4583 15.0999 51.0061 15.5521 48.8938 15.8546V8.61001C48.8938 6.94985 49.0445 6.64731 49.6485 6.79913H51.3087C54.3275 6.95095 54.4783 11.1767 54.629 12.2329H55.0823V5.74296H44.3677V6.34695C45.2731 6.34695 45.876 7.40312 45.876 9.06218V23.8518C45.876 25.5119 45.272 26.567 44.3677 26.567V27.171H55.233L55.9877 20.6822H55.5344C54.1757 25.2116 52.6663 26.5681 49.95 26.2677ZM15.695 1.36758L9.35695 1.21685V2.42374H11.3186L2.11342 26.2677H0V27.4746H5.58337V26.2677H3.31922L6.18627 19.1749H11.7696V26.2677H9.20404V27.4746H18.1077V26.2677H15.6939V1.36758H15.695ZM11.7707 18.2673H6.64063L11.7707 4.98825V18.2673ZM129.326 1.21576H119.366V2.42265H121.781V26.2667H119.066V27.4735H128.271V26.2667H125.707V15.8546H129.63C130.989 15.8546 132.045 14.4959 132.045 13.5916V3.4799C132.044 2.72519 131.137 1.21576 129.326 1.21576ZM128.27 14.0437C128.27 14.4959 127.97 14.7963 127.518 14.7963H125.707V2.42374H127.518C127.97 2.42374 128.27 2.72519 128.27 3.02664V14.0437ZM148.039 18.1188C149.095 18.1188 149.55 19.1749 149.55 20.834V24.9079C149.55 25.3601 149.55 26.1148 148.795 26.5681C148.343 26.8706 147.739 26.8706 147.287 26.8706C146.984 26.8706 146.532 26.8706 146.228 26.4185C145.324 25.8145 144.872 24.6076 144.419 22.4931C144.117 21.1366 143.965 18.8713 143.965 16.6072C143.965 14.1923 144.117 11.9292 144.419 10.5727C144.872 8.45819 145.324 7.2513 146.228 6.64731C146.515 6.37356 146.891 6.21291 147.287 6.19513C148.493 6.19513 151.21 8.30966 152.114 12.9854H152.568V5.44042H152.114C151.814 6.04442 151.814 7.10167 150.758 6.79913C150.154 6.49768 148.947 5.59224 147.287 5.44042C146.08 5.44042 144.72 6.04441 143.513 7.40203C141.702 9.21291 140.798 12.8358 140.798 16.6072C140.798 20.2289 141.702 23.8518 143.513 25.8145C144.72 27.0203 146.08 27.775 147.287 27.775C147.891 27.775 148.493 27.775 149.095 27.6232C149.55 27.4735 152.114 26.8706 152.568 26.1148V20.8329C152.568 19.1728 153.172 18.1177 154.229 18.1177V17.5137H148.04V18.1188H148.039ZM163.281 6.34695C164.337 6.34695 164.791 7.40312 164.791 9.06218V20.5326C164.791 26.567 161.772 26.7188 160.566 26.1148C159.055 25.3601 158.755 22.7956 158.755 20.3807V9.06327C158.755 7.40312 159.359 6.34804 160.415 6.34804V5.74406H154.229V6.34804C155.285 6.34804 155.737 7.40421 155.737 9.06327V21.5898C155.737 23.8529 157.096 27.4757 160.264 27.7761C163.434 27.9279 165.546 25.9652 165.546 20.3818V9.06327C165.546 7.40312 166.15 6.34804 167.057 6.34804V5.74406H163.281V6.34695ZM174.297 26.2677C173.241 26.1159 173.241 25.6638 173.241 24.1532V16.9108C175.355 17.0604 175.656 17.6633 176.26 21.5887H176.712V11.1767H176.26C175.656 15.0999 175.355 15.5521 173.241 15.8546V8.61001C173.241 6.94985 173.392 6.64731 173.995 6.79913H175.656C178.674 6.95095 178.825 11.1767 178.975 12.2329H179.277V5.74296H168.562V6.34695C169.618 6.34695 170.222 7.40312 170.222 9.06218V23.8518C170.222 25.5119 169.618 26.567 168.562 26.567V27.171H179.428L180.332 20.6822H179.728C178.371 25.2116 177.014 26.5681 174.297 26.2677ZM180.635 5.74296V12.081H181.089C181.239 11.3263 181.239 9.818 182.145 8.15784C183.202 6.34696 184.408 6.79913 184.861 6.79913V23.8518C184.861 25.5119 184.257 26.567 183.352 26.567V27.171H189.389V26.567C188.482 26.567 187.878 25.5108 187.878 23.8518V6.79913C188.331 6.79913 189.539 6.34696 190.594 8.15784C191.5 9.818 191.5 11.3252 191.652 12.081H191.952V5.74296H180.635ZM65.9465 20.3818L62.0232 5.74296H56.7413V6.34695C58.1 6.34695 58.5522 6.79913 58.5522 9.06218V23.8518C58.5522 25.5119 58.0989 26.567 56.892 26.567V27.171H61.1178V26.567C60.0616 26.567 59.4577 25.5108 59.4577 23.8518V8.45929L64.5878 27.1721H65.041L70.3218 8.45929V23.8529C70.3218 25.513 69.719 26.5681 68.6617 26.5681V27.1721H75.3023V26.5681C74.2462 26.5681 73.6422 25.5119 73.6422 23.8529V9.06327C73.6422 7.40312 74.2462 6.34804 75.3023 6.34804V5.74406H70.1711L65.9465 20.3818ZM102.012 25.3601L98.3905 16.6072C99.4489 16.155 100.353 15.4003 100.957 13.7401C101.712 11.7796 101.26 9.21291 100.505 7.85421C99.4489 6.19405 97.638 5.74187 96.1285 5.74187H90.2426V6.34586C91.1481 6.34586 91.7521 7.40202 91.7521 9.06109V23.8507C91.7521 25.5108 91.1481 26.5659 90.2426 26.5659H90.3934V27.1699H96.2793V26.5659C95.3738 26.5659 94.7709 25.5098 94.7709 23.8507V17.2101H95.2231L99.1463 27.1699H102.92V26.5659C102.616 26.5681 102.464 26.7199 102.012 25.3601ZM98.0891 13.7412C97.4851 16.6083 95.6742 16.1561 94.7688 16.1561V8.15893C94.7688 7.2524 95.2209 6.80022 95.5224 6.80022C97.0318 6.49877 97.6358 7.55494 97.9361 8.76292C98.2409 9.51545 98.3905 12.2329 98.0891 13.7412ZM87.8278 25.0598L82.9991 5.74296H82.5458L77.8679 24.4558C77.4146 26.2667 76.9625 26.5681 76.5103 26.5681V27.1721H80.2828V26.5681C78.9252 26.5681 78.4719 25.5119 78.9252 23.8529L79.5292 20.9858H83.9056L84.8111 24.6076C85.1125 26.2677 83.9056 26.5681 83.1509 26.5681V27.1721H89.0368V26.5681C88.7332 26.5681 88.1292 26.4185 87.8278 25.0598ZM79.8295 19.7778L81.6404 11.9292L83.602 19.7778H79.8295ZM133.552 6.34695C134.759 6.34695 135.363 7.40312 135.363 9.06218V23.8518C135.363 25.5119 134.759 26.567 133.552 26.567V27.171H140.041V26.567C138.834 26.567 138.381 25.5108 138.381 23.8518V9.06327C138.381 7.40312 138.833 6.34804 140.041 6.34804V5.74406H133.552V6.34695ZM109.709 14.1934C107.294 12.9865 106.539 11.3263 106.539 9.96981C106.539 9.21509 106.842 6.49768 108.654 6.49768C111.369 6.49768 112.276 10.7223 112.728 12.3825H113.18V5.44152H112.728C112.425 6.04551 112.425 6.49768 111.973 6.49768C110.917 6.49768 110.011 5.44152 107.899 5.44152C106.088 5.44152 103.976 7.10277 103.976 11.3263C103.976 13.289 104.58 16.0043 106.995 17.6644C110.314 20.0793 111.522 20.9858 111.522 22.7967C111.522 23.5492 111.222 26.7199 108.503 26.7199C106.541 26.7199 105.184 23.5503 105.032 22.3423L104.58 20.0793H104.128V27.7761H104.58C104.58 27.1721 104.732 26.7199 104.88 26.7199C105.939 26.7199 107.747 27.7761 108.954 27.7761C113.483 27.7761 114.236 23.7021 114.236 21.5898C114.236 18.571 112.88 15.8546 109.709 14.1934Z" fill="black"/>
<path d="M211.103 21.7876V18.3629H212.815V16.6505H214.528V14.9381H212.815V13.2257H211.103V9.80095H214.528V13.2257H216.24V14.9381H217.952V13.2257H219.665V9.80095H223.09V13.2257H221.377V14.9381H219.665V16.6505H221.377V18.3629H223.09V21.7876H219.665V18.3629H217.952V16.6505H216.24V18.3629H214.528V21.7876H211.103Z" fill="black"/>
<g clip-path="url(#clip0_22_557)">
<path d="M306.283 7.49567V25.9966H303.616V10.1441H299.115C295.251 10.0901 292.185 13.0173 292.13 16.7672C292.185 20.6269 295.323 23.7529 299.17 23.7369C300.096 23.753 300.931 23.5877 301.729 23.231L301.983 23.1119H302.291V25.8414C301.293 26.2092 300.241 26.4021 299.134 26.3824C293.89 26.4058 289.554 22.1081 289.481 16.7652C289.554 11.5824 293.89 7.42358 299.134 7.49567H306.283ZM329.038 7.18903C332.196 7.2612 334.99 8.7212 336.714 11.19L334.518 12.6998C333.284 10.9374 331.27 9.89252 329.02 9.83844C325.137 9.89259 321.98 13.004 322.016 16.7935C321.998 18.6514 322.705 20.3967 324.03 21.7086C325.354 23.024 327.115 23.745 329.02 23.7379C331.742 23.754 334.227 22.1606 335.334 19.6793L337.766 20.7584C336.224 24.1985 332.776 26.4059 329.02 26.3824C326.407 26.3931 323.976 25.3968 322.143 23.5767C320.31 21.7603 319.33 19.3452 319.348 16.7935C319.312 11.5749 323.631 7.26112 329.038 7.18903ZM286.94 20.063C286.958 21.728 286.305 23.2867 285.125 24.4507C283.946 25.6096 282.385 26.2387 280.752 26.2261C278.811 26.2423 277.068 25.323 275.925 23.8814C275.78 24.0634 275.616 24.2401 275.453 24.4058C274.274 25.5932 272.695 26.2405 271.008 26.2261C269.393 26.2387 267.887 25.6149 266.726 24.4673C265.565 23.2905 264.929 21.7191 264.948 20.063V7.56793H267.615V20.0826C267.596 21.0396 267.96 21.9354 268.631 22.6021C269.266 23.24 270.101 23.5878 271.008 23.5806C271.988 23.5877 272.895 23.2214 273.567 22.5474C274.22 21.8933 274.564 21.021 274.546 20.0914V7.56793H277.196V20.0338C277.25 22.0051 278.829 23.5949 280.752 23.5806C281.696 23.5877 282.567 23.2305 283.239 22.5728C283.91 21.9097 284.29 21.0178 284.29 20.063V7.56793L286.94 7.56696V20.063ZM312.725 2.73785V7.49567H319.094V10.1441H312.725V20.4068C312.707 21.2087 313.015 21.9783 313.596 22.5748C314.231 23.2145 315.066 23.5716 315.955 23.5806H319.729V26.2261H315.955C314.322 26.21 312.798 25.5659 311.691 24.4127C310.602 23.3026 310.021 21.8574 310.075 20.3746V2.73785H312.725ZM261.573 7.65778V10.3062H249.16C248.471 10.3062 247.854 10.577 247.382 11.0455C246.929 11.4959 246.693 12.0867 246.693 12.7408C246.693 13.4364 246.928 14.0677 247.382 14.5181C247.799 14.9307 248.362 15.1542 248.979 15.149H256.691C259.812 15.1741 262.208 17.4769 262.262 20.5601C262.208 23.5587 259.703 26.0311 256.691 26.0709H243.952V23.4234H256.673C258.251 23.4035 259.576 22.0936 259.594 20.5601C259.576 18.9707 258.342 17.8082 256.691 17.7955H248.997C247.673 17.8064 246.42 17.3071 245.494 16.3863C244.533 15.4276 244.025 14.1227 244.043 12.7408C244.025 11.4055 244.533 10.1441 245.477 9.18903C246.457 8.21623 247.745 7.65789 249.142 7.65778H261.573ZM342.284 2.73785V9.22516C343.79 7.87371 345.714 7.15304 347.692 7.18903C352.174 7.11693 355.893 10.703 355.966 15.2222V25.9966H353.299V15.2457C353.244 12.2111 350.758 9.78455 347.692 9.83844C346.258 9.80246 344.898 10.3608 343.864 11.3697C342.829 12.3969 342.266 13.7576 342.284 15.2047V25.9966H339.616V2.73785H342.284ZM353.843 2.59332C354.986 2.59332 355.948 3.47651 355.948 4.66559C355.948 5.85505 354.986 6.73883 353.843 6.73883C352.7 6.73862 351.72 5.85491 351.72 4.66559C351.72 3.47665 352.7 2.59354 353.843 2.59332ZM353.843 2.9361C352.882 2.93631 352.138 3.67492 352.138 4.66559C352.138 5.65664 352.881 6.39584 353.843 6.39606C354.787 6.39606 355.531 5.65678 355.531 4.66559C355.531 3.67478 354.786 2.9361 353.843 2.9361ZM353.952 3.47711C354.515 3.47713 354.805 3.67521 354.805 4.16168C354.805 4.57594 354.533 4.77396 354.189 4.81012L354.86 5.85504H354.46L353.825 4.82867H353.408V5.85504H353.027V3.47711H353.952ZM353.408 3.78278V4.52203H353.844C354.152 4.52202 354.424 4.50379 354.424 4.12555C354.424 3.83734 354.152 3.78278 353.898 3.78278H353.408Z" fill="black"/>
<path d="M359.832 8.03607H377.905V25.9971H359.832V8.03607Z" fill="#FE0101"/>
<path d="M376.653 14.7541H371.136V9.29742H366.582V14.7541H360.92V19.2826H366.582V24.9032H371.136V19.2826H376.653L376.653 14.7541Z" fill="#FFFEFF"/>
</g>
<defs>
<clipPath id="clip0_22_557">
<rect width="133.952" height="29" fill="white" transform="translate(243.952)"/>
</clipPath>
</defs>
</svg>
