<svg width="150" height="150" viewBox="0 0 150 150" fill="none" xmlns="http://www.w3.org/2000/svg">
<g clip-path="url(#clip0_250_3)">
<path d="M150 0H0V150H150V0Z" fill="white"/>
<path d="M20.2709 16.2158H16.2168V20.2699H20.2709V16.2158Z" fill="black"/>
<path d="M20.2709 20.2695H16.2168V24.3236H20.2709V20.2695Z" fill="black"/>
<path d="M20.2709 24.3242H16.2168V28.3783H20.2709V24.3242Z" fill="black"/>
<path d="M20.2709 28.3779H16.2168V32.432H20.2709V28.3779Z" fill="black"/>
<path d="M20.2709 32.4316H16.2168V36.4857H20.2709V32.4316Z" fill="black"/>
<path d="M20.2709 36.4863H16.2168V40.5404H20.2709V36.4863Z" fill="black"/>
<path d="M20.2709 40.54H16.2168V44.5941H20.2709V40.54Z" fill="black"/>
<path d="M20.2709 48.6484H16.2168V52.7025H20.2709V48.6484Z" fill="black"/>
<path d="M20.2709 52.7021H16.2168V56.7562H20.2709V52.7021Z" fill="black"/>
<path d="M20.2709 56.7568H16.2168V60.8109H20.2709V56.7568Z" fill="black"/>
<path d="M20.2709 105.405H16.2168V109.459H20.2709V105.405Z" fill="black"/>
<path d="M20.2709 109.459H16.2168V113.513H20.2709V109.459Z" fill="black"/>
<path d="M20.2709 113.513H16.2168V117.567H20.2709V113.513Z" fill="black"/>
<path d="M20.2709 117.567H16.2168V121.621H20.2709V117.567Z" fill="black"/>
<path d="M20.2709 121.621H16.2168V125.675H20.2709V121.621Z" fill="black"/>
<path d="M20.2709 125.675H16.2168V129.729H20.2709V125.675Z" fill="black"/>
<path d="M20.2709 129.729H16.2168V133.784H20.2709V129.729Z" fill="black"/>
<path d="M24.3255 16.2158H20.2715V20.2699H24.3255V16.2158Z" fill="black"/>
<path d="M24.3255 40.54H20.2715V44.5941H24.3255V40.54Z" fill="black"/>
<path d="M24.3255 48.6484H20.2715V52.7025H24.3255V48.6484Z" fill="black"/>
<path d="M24.3255 52.7021H20.2715V56.7562H24.3255V52.7021Z" fill="black"/>
<path d="M24.3255 56.7568H20.2715V60.8109H24.3255V56.7568Z" fill="black"/>
<path d="M24.3255 64.8643H20.2715V68.9183H24.3255V64.8643Z" fill="black"/>
<path d="M24.3255 81.0811H20.2715V85.1351H24.3255V81.0811Z" fill="black"/>
<path d="M24.3255 85.1348H20.2715V89.1888H24.3255V85.1348Z" fill="black"/>
<path d="M24.3255 105.405H20.2715V109.459H24.3255V105.405Z" fill="black"/>
<path d="M24.3255 129.729H20.2715V133.784H24.3255V129.729Z" fill="black"/>
<path d="M28.3783 16.2158H24.3242V20.2699H28.3783V16.2158Z" fill="black"/>
<path d="M28.3783 24.3242H24.3242V28.3783H28.3783V24.3242Z" fill="black"/>
<path d="M28.3783 28.3779H24.3242V32.432H28.3783V28.3779Z" fill="black"/>
<path d="M28.3783 32.4316H24.3242V36.4857H28.3783V32.4316Z" fill="black"/>
<path d="M28.3783 40.54H24.3242V44.5941H28.3783V40.54Z" fill="black"/>
<path d="M28.3783 52.7021H24.3242V56.7562H28.3783V52.7021Z" fill="black"/>
<path d="M28.3783 56.7568H24.3242V60.8109H28.3783V56.7568Z" fill="black"/>
<path d="M28.3783 77.0264H24.3242V81.0804H28.3783V77.0264Z" fill="black"/>
<path d="M28.3783 81.0811H24.3242V85.1351H28.3783V81.0811Z" fill="black"/>
<path d="M28.3783 93.2432H24.3242V97.2972H28.3783V93.2432Z" fill="black"/>
<path d="M28.3783 97.2969H24.3242V101.351H28.3783V97.2969Z" fill="black"/>
<path d="M28.3783 105.405H24.3242V109.459H28.3783V105.405Z" fill="black"/>
<path d="M28.3783 113.513H24.3242V117.567H28.3783V113.513Z" fill="black"/>
<path d="M28.3783 117.567H24.3242V121.621H28.3783V117.567Z" fill="black"/>
<path d="M28.3783 121.621H24.3242V125.675H28.3783V121.621Z" fill="black"/>
<path d="M28.3783 129.729H24.3242V133.784H28.3783V129.729Z" fill="black"/>
<path d="M32.433 16.2158H28.3789V20.2699H32.433V16.2158Z" fill="black"/>
<path d="M32.433 24.3242H28.3789V28.3783H32.433V24.3242Z" fill="black"/>
<path d="M32.433 28.3779H28.3789V32.432H32.433V28.3779Z" fill="black"/>
<path d="M32.433 32.4316H28.3789V36.4857H32.433V32.4316Z" fill="black"/>
<path d="M32.433 40.54H28.3789V44.5941H32.433V40.54Z" fill="black"/>
<path d="M32.433 48.6484H28.3789V52.7025H32.433V48.6484Z" fill="black"/>
<path d="M32.433 52.7021H28.3789V56.7562H32.433V52.7021Z" fill="black"/>
<path d="M32.433 77.0264H28.3789V81.0804H32.433V77.0264Z" fill="black"/>
<path d="M32.433 85.1348H28.3789V89.1888H32.433V85.1348Z" fill="black"/>
<path d="M32.433 105.405H28.3789V109.459H32.433V105.405Z" fill="black"/>
<path d="M32.433 113.513H28.3789V117.567H32.433V113.513Z" fill="black"/>
<path d="M32.433 117.567H28.3789V121.621H32.433V117.567Z" fill="black"/>
<path d="M32.433 121.621H28.3789V125.675H32.433V121.621Z" fill="black"/>
<path d="M32.433 129.729H28.3789V133.784H32.433V129.729Z" fill="black"/>
<path d="M36.4876 16.2158H32.4336V20.2699H36.4876V16.2158Z" fill="black"/>
<path d="M36.4876 24.3242H32.4336V28.3783H36.4876V24.3242Z" fill="black"/>
<path d="M36.4876 28.3779H32.4336V32.432H36.4876V28.3779Z" fill="black"/>
<path d="M36.4876 32.4316H32.4336V36.4857H36.4876V32.4316Z" fill="black"/>
<path d="M36.4876 40.54H32.4336V44.5941H36.4876V40.54Z" fill="black"/>
<path d="M36.4876 48.6484H32.4336V52.7025H36.4876V48.6484Z" fill="black"/>
<path d="M36.4876 72.9727H32.4336V77.0267H36.4876V72.9727Z" fill="black"/>
<path d="M36.4876 77.0264H32.4336V81.0804H36.4876V77.0264Z" fill="black"/>
<path d="M36.4876 89.1885H32.4336V93.2425H36.4876V89.1885Z" fill="black"/>
<path d="M36.4876 93.2432H32.4336V97.2972H36.4876V93.2432Z" fill="black"/>
<path d="M36.4876 105.405H32.4336V109.459H36.4876V105.405Z" fill="black"/>
<path d="M36.4876 113.513H32.4336V117.567H36.4876V113.513Z" fill="black"/>
<path d="M36.4876 117.567H32.4336V121.621H36.4876V117.567Z" fill="black"/>
<path d="M36.4876 121.621H32.4336V125.675H36.4876V121.621Z" fill="black"/>
<path d="M36.4876 129.729H32.4336V133.784H36.4876V129.729Z" fill="black"/>
<path d="M40.5404 16.2158H36.4863V20.2699H40.5404V16.2158Z" fill="black"/>
<path d="M40.5404 40.54H36.4863V44.5941H40.5404V40.54Z" fill="black"/>
<path d="M40.5404 52.7021H36.4863V56.7562H40.5404V52.7021Z" fill="black"/>
<path d="M40.5404 56.7568H36.4863V60.8109H40.5404V56.7568Z" fill="black"/>
<path d="M40.5404 64.8643H36.4863V68.9183H40.5404V64.8643Z" fill="black"/>
<path d="M40.5404 72.9727H36.4863V77.0267H40.5404V72.9727Z" fill="black"/>
<path d="M40.5404 77.0264H36.4863V81.0804H40.5404V77.0264Z" fill="black"/>
<path d="M40.5404 85.1348H36.4863V89.1888H40.5404V85.1348Z" fill="black"/>
<path d="M40.5404 97.2969H36.4863V101.351H40.5404V97.2969Z" fill="black"/>
<path d="M40.5404 105.405H36.4863V109.459H40.5404V105.405Z" fill="black"/>
<path d="M40.5404 129.729H36.4863V133.784H40.5404V129.729Z" fill="black"/>
<path d="M44.5951 16.2158H40.541V20.2699H44.5951V16.2158Z" fill="black"/>
<path d="M44.5951 20.2695H40.541V24.3236H44.5951V20.2695Z" fill="black"/>
<path d="M44.5951 24.3242H40.541V28.3783H44.5951V24.3242Z" fill="black"/>
<path d="M44.5951 28.3779H40.541V32.432H44.5951V28.3779Z" fill="black"/>
<path d="M44.5951 32.4316H40.541V36.4857H44.5951V32.4316Z" fill="black"/>
<path d="M44.5951 36.4863H40.541V40.5404H44.5951V36.4863Z" fill="black"/>
<path d="M44.5951 40.54H40.541V44.5941H44.5951V40.54Z" fill="black"/>
<path d="M44.5951 48.6484H40.541V52.7025H44.5951V48.6484Z" fill="black"/>
<path d="M44.5951 56.7568H40.541V60.8109H44.5951V56.7568Z" fill="black"/>
<path d="M44.5951 64.8643H40.541V68.9183H44.5951V64.8643Z" fill="black"/>
<path d="M44.5951 72.9727H40.541V77.0267H44.5951V72.9727Z" fill="black"/>
<path d="M44.5951 81.0811H40.541V85.1351H44.5951V81.0811Z" fill="black"/>
<path d="M44.5951 89.1885H40.541V93.2425H44.5951V89.1885Z" fill="black"/>
<path d="M44.5951 97.2969H40.541V101.351H44.5951V97.2969Z" fill="black"/>
<path d="M44.5951 105.405H40.541V109.459H44.5951V105.405Z" fill="black"/>
<path d="M44.5951 109.459H40.541V113.513H44.5951V109.459Z" fill="black"/>
<path d="M44.5951 113.513H40.541V117.567H44.5951V113.513Z" fill="black"/>
<path d="M44.5951 117.567H40.541V121.621H44.5951V117.567Z" fill="black"/>
<path d="M44.5951 121.621H40.541V125.675H44.5951V121.621Z" fill="black"/>
<path d="M44.5951 125.675H40.541V129.729H44.5951V125.675Z" fill="black"/>
<path d="M44.5951 129.729H40.541V133.784H44.5951V129.729Z" fill="black"/>
<path d="M48.6498 56.7568H44.5957V60.8109H48.6498V56.7568Z" fill="black"/>
<path d="M48.6498 60.8105H44.5957V64.8646H48.6498V60.8105Z" fill="black"/>
<path d="M48.6498 77.0264H44.5957V81.0804H48.6498V77.0264Z" fill="black"/>
<path d="M48.6498 81.0811H44.5957V85.1351H48.6498V81.0811Z" fill="black"/>
<path d="M48.6498 97.2969H44.5957V101.351H48.6498V97.2969Z" fill="black"/>
<path d="M52.7025 16.2158H48.6484V20.2699H52.7025V16.2158Z" fill="black"/>
<path d="M52.7025 40.54H48.6484V44.5941H52.7025V40.54Z" fill="black"/>
<path d="M52.7025 44.5938H48.6484V48.6478H52.7025V44.5938Z" fill="black"/>
<path d="M52.7025 52.7021H48.6484V56.7562H52.7025V52.7021Z" fill="black"/>
<path d="M52.7025 60.8105H48.6484V64.8646H52.7025V60.8105Z" fill="black"/>
<path d="M52.7025 72.9727H48.6484V77.0267H52.7025V72.9727Z" fill="black"/>
<path d="M52.7025 81.0811H48.6484V85.1351H52.7025V81.0811Z" fill="black"/>
<path d="M52.7025 85.1348H48.6484V89.1888H52.7025V85.1348Z" fill="black"/>
<path d="M52.7025 89.1885H48.6484V93.2425H52.7025V89.1885Z" fill="black"/>
<path d="M52.7025 101.351H48.6484V105.405H52.7025V101.351Z" fill="black"/>
<path d="M52.7025 113.513H48.6484V117.567H52.7025V113.513Z" fill="black"/>
<path d="M52.7025 117.567H48.6484V121.621H52.7025V117.567Z" fill="black"/>
<path d="M52.7025 125.675H48.6484V129.729H52.7025V125.675Z" fill="black"/>
<path d="M52.7025 129.729H48.6484V133.784H52.7025V129.729Z" fill="black"/>
<path d="M56.7572 16.2158H52.7031V20.2699H56.7572V16.2158Z" fill="black"/>
<path d="M56.7572 24.3242H52.7031V28.3783H56.7572V24.3242Z" fill="black"/>
<path d="M56.7572 36.4863H52.7031V40.5404H56.7572V36.4863Z" fill="black"/>
<path d="M56.7572 44.5938H52.7031V48.6478H56.7572V44.5938Z" fill="black"/>
<path d="M56.7572 48.6484H52.7031V52.7025H56.7572V48.6484Z" fill="black"/>
<path d="M56.7572 56.7568H52.7031V60.8109H56.7572V56.7568Z" fill="black"/>
<path d="M56.7572 64.8643H52.7031V68.9183H56.7572V64.8643Z" fill="black"/>
<path d="M56.7572 68.9189H52.7031V72.973H56.7572V68.9189Z" fill="black"/>
<path d="M56.7572 77.0264H52.7031V81.0804H56.7572V77.0264Z" fill="black"/>
<path d="M56.7572 85.1348H52.7031V89.1888H56.7572V85.1348Z" fill="black"/>
<path d="M56.7572 89.1885H52.7031V93.2425H56.7572V89.1885Z" fill="black"/>
<path d="M56.7572 93.2432H52.7031V97.2972H56.7572V93.2432Z" fill="black"/>
<path d="M56.7572 97.2969H52.7031V101.351H56.7572V97.2969Z" fill="black"/>
<path d="M56.7572 121.621H52.7031V125.675H56.7572V121.621Z" fill="black"/>
<path d="M56.7572 125.675H52.7031V129.729H56.7572V125.675Z" fill="black"/>
<path d="M56.7572 129.729H52.7031V133.784H56.7572V129.729Z" fill="black"/>
<path d="M60.8119 16.2158H56.7578V20.2699H60.8119V16.2158Z" fill="black"/>
<path d="M60.8119 28.3779H56.7578V32.432H60.8119V28.3779Z" fill="black"/>
<path d="M60.8119 32.4316H56.7578V36.4857H60.8119V32.4316Z" fill="black"/>
<path d="M60.8119 40.54H56.7578V44.5941H60.8119V40.54Z" fill="black"/>
<path d="M60.8119 52.7021H56.7578V56.7562H60.8119V52.7021Z" fill="black"/>
<path d="M60.8119 64.8643H56.7578V68.9183H60.8119V64.8643Z" fill="black"/>
<path d="M60.8119 68.9189H56.7578V72.973H60.8119V68.9189Z" fill="black"/>
<path d="M60.8119 72.9727H56.7578V77.0267H60.8119V72.9727Z" fill="black"/>
<path d="M60.8119 81.0811H56.7578V85.1351H60.8119V81.0811Z" fill="black"/>
<path d="M60.8119 89.1885H56.7578V93.2425H60.8119V89.1885Z" fill="black"/>
<path d="M60.8119 93.2432H56.7578V97.2972H60.8119V93.2432Z" fill="black"/>
<path d="M60.8119 101.351H56.7578V105.405H60.8119V101.351Z" fill="black"/>
<path d="M60.8119 113.513H56.7578V117.567H60.8119V113.513Z" fill="black"/>
<path d="M60.8119 121.621H56.7578V125.675H60.8119V121.621Z" fill="black"/>
<path d="M60.8119 125.675H56.7578V129.729H60.8119V125.675Z" fill="black"/>
<path d="M60.8119 129.729H56.7578V133.784H60.8119V129.729Z" fill="black"/>
<path d="M64.8646 16.2158H60.8105V20.2699H64.8646V16.2158Z" fill="black"/>
<path d="M64.8646 20.2695H60.8105V24.3236H64.8646V20.2695Z" fill="black"/>
<path d="M64.8646 24.3242H60.8105V28.3783H64.8646V24.3242Z" fill="black"/>
<path d="M64.8646 28.3779H60.8105V32.432H64.8646V28.3779Z" fill="black"/>
<path d="M64.8646 32.4316H60.8105V36.4857H64.8646V32.4316Z" fill="black"/>
<path d="M64.8646 36.4863H60.8105V40.5404H64.8646V36.4863Z" fill="black"/>
<path d="M64.8646 81.0811H60.8105V85.1351H64.8646V81.0811Z" fill="black"/>
<path d="M64.8646 85.1348H60.8105V89.1888H64.8646V85.1348Z" fill="black"/>
<path d="M64.8646 93.2432H60.8105V97.2972H64.8646V93.2432Z" fill="black"/>
<path d="M64.8646 97.2969H60.8105V101.351H64.8646V97.2969Z" fill="black"/>
<path d="M64.8646 105.405H60.8105V109.459H64.8646V105.405Z" fill="black"/>
<path d="M64.8646 109.459H60.8105V113.513H64.8646V109.459Z" fill="black"/>
<path d="M64.8646 113.513H60.8105V117.567H64.8646V113.513Z" fill="black"/>
<path d="M64.8646 121.621H60.8105V125.675H64.8646V121.621Z" fill="black"/>
<path d="M64.8646 125.675H60.8105V129.729H64.8646V125.675Z" fill="black"/>
<path d="M68.9193 20.2695H64.8652V24.3236H68.9193V20.2695Z" fill="black"/>
<path d="M68.9193 32.4316H64.8652V36.4857H68.9193V32.4316Z" fill="black"/>
<path d="M68.9193 40.54H64.8652V44.5941H68.9193V40.54Z" fill="black"/>
<path d="M68.9193 44.5938H64.8652V48.6478H68.9193V44.5938Z" fill="black"/>
<path d="M68.9193 48.6484H64.8652V52.7025H68.9193V48.6484Z" fill="black"/>
<path d="M68.9193 56.7568H64.8652V60.8109H68.9193V56.7568Z" fill="black"/>
<path d="M68.9193 68.9189H64.8652V72.973H68.9193V68.9189Z" fill="black"/>
<path d="M68.9193 77.0264H64.8652V81.0804H68.9193V77.0264Z" fill="black"/>
<path d="M68.9193 81.0811H64.8652V85.1351H68.9193V81.0811Z" fill="black"/>
<path d="M68.9193 89.1885H64.8652V93.2425H68.9193V89.1885Z" fill="black"/>
<path d="M68.9193 101.351H64.8652V105.405H68.9193V101.351Z" fill="black"/>
<path d="M68.9193 109.459H64.8652V113.513H68.9193V109.459Z" fill="black"/>
<path d="M68.9193 113.513H64.8652V117.567H68.9193V113.513Z" fill="black"/>
<path d="M68.9193 121.621H64.8652V125.675H68.9193V121.621Z" fill="black"/>
<path d="M68.9193 129.729H64.8652V133.784H68.9193V129.729Z" fill="black"/>
<path d="M72.974 24.3242H68.9199V28.3783H72.974V24.3242Z" fill="black"/>
<path d="M72.974 28.3779H68.9199V32.432H72.974V28.3779Z" fill="black"/>
<path d="M72.974 44.5938H68.9199V48.6478H72.974V44.5938Z" fill="black"/>
<path d="M72.974 52.7021H68.9199V56.7562H72.974V52.7021Z" fill="black"/>
<path d="M72.974 56.7568H68.9199V60.8109H72.974V56.7568Z" fill="black"/>
<path d="M72.974 72.9727H68.9199V77.0267H72.974V72.9727Z" fill="black"/>
<path d="M72.974 81.0811H68.9199V85.1351H72.974V81.0811Z" fill="black"/>
<path d="M72.974 89.1885H68.9199V93.2425H72.974V89.1885Z" fill="black"/>
<path d="M72.974 93.2432H68.9199V97.2972H72.974V93.2432Z" fill="black"/>
<path d="M72.974 101.351H68.9199V105.405H72.974V101.351Z" fill="black"/>
<path d="M72.974 121.621H68.9199V125.675H72.974V121.621Z" fill="black"/>
<path d="M77.0267 16.2158H72.9727V20.2699H77.0267V16.2158Z" fill="black"/>
<path d="M77.0267 24.3242H72.9727V28.3783H77.0267V24.3242Z" fill="black"/>
<path d="M77.0267 40.54H72.9727V44.5941H77.0267V40.54Z" fill="black"/>
<path d="M77.0267 44.5938H72.9727V48.6478H77.0267V44.5938Z" fill="black"/>
<path d="M77.0267 52.7021H72.9727V56.7562H77.0267V52.7021Z" fill="black"/>
<path d="M77.0267 68.9189H72.9727V72.973H77.0267V68.9189Z" fill="black"/>
<path d="M77.0267 77.0264H72.9727V81.0804H77.0267V77.0264Z" fill="black"/>
<path d="M77.0267 85.1348H72.9727V89.1888H77.0267V85.1348Z" fill="black"/>
<path d="M77.0267 93.2432H72.9727V97.2972H77.0267V93.2432Z" fill="black"/>
<path d="M77.0267 97.2969H72.9727V101.351H77.0267V97.2969Z" fill="black"/>
<path d="M77.0267 101.351H72.9727V105.405H77.0267V101.351Z" fill="black"/>
<path d="M77.0267 109.459H72.9727V113.513H77.0267V109.459Z" fill="black"/>
<path d="M77.0267 117.567H72.9727V121.621H77.0267V117.567Z" fill="black"/>
<path d="M77.0267 121.621H72.9727V125.675H77.0267V121.621Z" fill="black"/>
<path d="M77.0267 125.675H72.9727V129.729H77.0267V125.675Z" fill="black"/>
<path d="M77.0267 129.729H72.9727V133.784H77.0267V129.729Z" fill="black"/>
<path d="M81.0814 24.3242H77.0273V28.3783H81.0814V24.3242Z" fill="black"/>
<path d="M81.0814 52.7021H77.0273V56.7562H81.0814V52.7021Z" fill="black"/>
<path d="M81.0814 56.7568H77.0273V60.8109H81.0814V56.7568Z" fill="black"/>
<path d="M81.0814 68.9189H77.0273V72.973H81.0814V68.9189Z" fill="black"/>
<path d="M81.0814 72.9727H77.0273V77.0267H81.0814V72.9727Z" fill="black"/>
<path d="M81.0814 81.0811H77.0273V85.1351H81.0814V81.0811Z" fill="black"/>
<path d="M81.0814 85.1348H77.0273V89.1888H81.0814V85.1348Z" fill="black"/>
<path d="M81.0814 89.1885H77.0273V93.2425H81.0814V89.1885Z" fill="black"/>
<path d="M81.0814 101.351H77.0273V105.405H81.0814V101.351Z" fill="black"/>
<path d="M81.0814 105.405H77.0273V109.459H81.0814V105.405Z" fill="black"/>
<path d="M81.0814 109.459H77.0273V113.513H81.0814V109.459Z" fill="black"/>
<path d="M81.0814 117.567H77.0273V121.621H81.0814V117.567Z" fill="black"/>
<path d="M81.0814 121.621H77.0273V125.675H81.0814V121.621Z" fill="black"/>
<path d="M81.0814 125.675H77.0273V129.729H81.0814V125.675Z" fill="black"/>
<path d="M81.0814 129.729H77.0273V133.784H81.0814V129.729Z" fill="black"/>
<path d="M85.1361 24.3242H81.082V28.3783H85.1361V24.3242Z" fill="black"/>
<path d="M85.1361 32.4316H81.082V36.4857H85.1361V32.4316Z" fill="black"/>
<path d="M85.1361 40.54H81.082V44.5941H85.1361V40.54Z" fill="black"/>
<path d="M85.1361 44.5938H81.082V48.6478H85.1361V44.5938Z" fill="black"/>
<path d="M85.1361 48.6484H81.082V52.7025H85.1361V48.6484Z" fill="black"/>
<path d="M85.1361 52.7021H81.082V56.7562H85.1361V52.7021Z" fill="black"/>
<path d="M85.1361 64.8643H81.082V68.9183H85.1361V64.8643Z" fill="black"/>
<path d="M85.1361 68.9189H81.082V72.973H85.1361V68.9189Z" fill="black"/>
<path d="M85.1361 77.0264H81.082V81.0804H85.1361V77.0264Z" fill="black"/>
<path d="M85.1361 105.405H81.082V109.459H85.1361V105.405Z" fill="black"/>
<path d="M85.1361 113.513H81.082V117.567H85.1361V113.513Z" fill="black"/>
<path d="M85.1361 117.567H81.082V121.621H85.1361V117.567Z" fill="black"/>
<path d="M85.1361 121.621H81.082V125.675H85.1361V121.621Z" fill="black"/>
<path d="M85.1361 125.675H81.082V129.729H85.1361V125.675Z" fill="black"/>
<path d="M85.1361 129.729H81.082V133.784H85.1361V129.729Z" fill="black"/>
<path d="M89.1888 20.2695H85.1348V24.3236H89.1888V20.2695Z" fill="black"/>
<path d="M89.1888 28.3779H85.1348V32.432H89.1888V28.3779Z" fill="black"/>
<path d="M89.1888 36.4863H85.1348V40.5404H89.1888V36.4863Z" fill="black"/>
<path d="M89.1888 48.6484H85.1348V52.7025H89.1888V48.6484Z" fill="black"/>
<path d="M89.1888 56.7568H85.1348V60.8109H89.1888V56.7568Z" fill="black"/>
<path d="M89.1888 60.8105H85.1348V64.8646H89.1888V60.8105Z" fill="black"/>
<path d="M89.1888 68.9189H85.1348V72.973H89.1888V68.9189Z" fill="black"/>
<path d="M89.1888 89.1885H85.1348V93.2425H89.1888V89.1885Z" fill="black"/>
<path d="M89.1888 97.2969H85.1348V101.351H89.1888V97.2969Z" fill="black"/>
<path d="M89.1888 105.405H85.1348V109.459H89.1888V105.405Z" fill="black"/>
<path d="M89.1888 109.459H85.1348V113.513H89.1888V109.459Z" fill="black"/>
<path d="M89.1888 117.567H85.1348V121.621H89.1888V117.567Z" fill="black"/>
<path d="M89.1888 121.621H85.1348V125.675H89.1888V121.621Z" fill="black"/>
<path d="M93.2435 16.2158H89.1895V20.2699H93.2435V16.2158Z" fill="black"/>
<path d="M93.2435 32.4316H89.1895V36.4857H93.2435V32.4316Z" fill="black"/>
<path d="M93.2435 36.4863H89.1895V40.5404H93.2435V36.4863Z" fill="black"/>
<path d="M93.2435 40.54H89.1895V44.5941H93.2435V40.54Z" fill="black"/>
<path d="M93.2435 60.8105H89.1895V64.8646H93.2435V60.8105Z" fill="black"/>
<path d="M93.2435 64.8643H89.1895V68.9183H93.2435V64.8643Z" fill="black"/>
<path d="M93.2435 68.9189H89.1895V72.973H93.2435V68.9189Z" fill="black"/>
<path d="M93.2435 85.1348H89.1895V89.1888H93.2435V85.1348Z" fill="black"/>
<path d="M93.2435 89.1885H89.1895V93.2425H93.2435V89.1885Z" fill="black"/>
<path d="M93.2435 109.459H89.1895V113.513H93.2435V109.459Z" fill="black"/>
<path d="M93.2435 113.513H89.1895V117.567H93.2435V113.513Z" fill="black"/>
<path d="M93.2435 117.567H89.1895V121.621H93.2435V117.567Z" fill="black"/>
<path d="M97.2982 20.2695H93.2441V24.3236H97.2982V20.2695Z" fill="black"/>
<path d="M97.2982 24.3242H93.2441V28.3783H97.2982V24.3242Z" fill="black"/>
<path d="M97.2982 28.3779H93.2441V32.432H97.2982V28.3779Z" fill="black"/>
<path d="M97.2982 32.4316H93.2441V36.4857H97.2982V32.4316Z" fill="black"/>
<path d="M97.2982 52.7021H93.2441V56.7562H97.2982V52.7021Z" fill="black"/>
<path d="M97.2982 60.8105H93.2441V64.8646H97.2982V60.8105Z" fill="black"/>
<path d="M97.2982 64.8643H93.2441V68.9183H97.2982V64.8643Z" fill="black"/>
<path d="M97.2982 72.9727H93.2441V77.0267H97.2982V72.9727Z" fill="black"/>
<path d="M97.2982 77.0264H93.2441V81.0804H97.2982V77.0264Z" fill="black"/>
<path d="M97.2982 81.0811H93.2441V85.1351H97.2982V81.0811Z" fill="black"/>
<path d="M97.2982 85.1348H93.2441V89.1888H97.2982V85.1348Z" fill="black"/>
<path d="M97.2982 89.1885H93.2441V93.2425H97.2982V89.1885Z" fill="black"/>
<path d="M97.2982 93.2432H93.2441V97.2972H97.2982V93.2432Z" fill="black"/>
<path d="M97.2982 105.405H93.2441V109.459H97.2982V105.405Z" fill="black"/>
<path d="M97.2982 109.459H93.2441V113.513H97.2982V109.459Z" fill="black"/>
<path d="M97.2982 113.513H93.2441V117.567H97.2982V113.513Z" fill="black"/>
<path d="M97.2982 121.621H93.2441V125.675H97.2982V121.621Z" fill="black"/>
<path d="M97.2982 129.729H93.2441V133.784H97.2982V129.729Z" fill="black"/>
<path d="M101.353 16.2158H97.2988V20.2699H101.353V16.2158Z" fill="black"/>
<path d="M101.353 24.3242H97.2988V28.3783H101.353V24.3242Z" fill="black"/>
<path d="M101.353 28.3779H97.2988V32.432H101.353V28.3779Z" fill="black"/>
<path d="M101.353 36.4863H97.2988V40.5404H101.353V36.4863Z" fill="black"/>
<path d="M101.353 40.54H97.2988V44.5941H101.353V40.54Z" fill="black"/>
<path d="M101.353 64.8643H97.2988V68.9183H101.353V64.8643Z" fill="black"/>
<path d="M101.353 81.0811H97.2988V85.1351H101.353V81.0811Z" fill="black"/>
<path d="M101.353 89.1885H97.2988V93.2425H101.353V89.1885Z" fill="black"/>
<path d="M101.353 93.2432H97.2988V97.2972H101.353V93.2432Z" fill="black"/>
<path d="M101.353 97.2969H97.2988V101.351H101.353V97.2969Z" fill="black"/>
<path d="M101.353 101.351H97.2988V105.405H101.353V101.351Z" fill="black"/>
<path d="M101.353 105.405H97.2988V109.459H101.353V105.405Z" fill="black"/>
<path d="M101.353 109.459H97.2988V113.513H101.353V109.459Z" fill="black"/>
<path d="M101.353 113.513H97.2988V117.567H101.353V113.513Z" fill="black"/>
<path d="M101.353 129.729H97.2988V133.784H101.353V129.729Z" fill="black"/>
<path d="M105.406 52.7021H101.352V56.7562H105.406V52.7021Z" fill="black"/>
<path d="M105.406 56.7568H101.352V60.8109H105.406V56.7568Z" fill="black"/>
<path d="M105.406 60.8105H101.352V64.8646H105.406V60.8105Z" fill="black"/>
<path d="M105.406 68.9189H101.352V72.973H105.406V68.9189Z" fill="black"/>
<path d="M105.406 77.0264H101.352V81.0804H105.406V77.0264Z" fill="black"/>
<path d="M105.406 89.1885H101.352V93.2425H105.406V89.1885Z" fill="black"/>
<path d="M105.406 93.2432H101.352V97.2972H105.406V93.2432Z" fill="black"/>
<path d="M105.406 97.2969H101.352V101.351H105.406V97.2969Z" fill="black"/>
<path d="M105.406 113.513H101.352V117.567H105.406V113.513Z" fill="black"/>
<path d="M105.406 117.567H101.352V121.621H105.406V117.567Z" fill="black"/>
<path d="M105.406 125.675H101.352V129.729H105.406V125.675Z" fill="black"/>
<path d="M105.406 129.729H101.352V133.784H105.406V129.729Z" fill="black"/>
<path d="M109.46 16.2158H105.406V20.2699H109.46V16.2158Z" fill="black"/>
<path d="M109.46 20.2695H105.406V24.3236H109.46V20.2695Z" fill="black"/>
<path d="M109.46 24.3242H105.406V28.3783H109.46V24.3242Z" fill="black"/>
<path d="M109.46 28.3779H105.406V32.432H109.46V28.3779Z" fill="black"/>
<path d="M109.46 32.4316H105.406V36.4857H109.46V32.4316Z" fill="black"/>
<path d="M109.46 36.4863H105.406V40.5404H109.46V36.4863Z" fill="black"/>
<path d="M109.46 40.54H105.406V44.5941H109.46V40.54Z" fill="black"/>
<path d="M109.46 48.6484H105.406V52.7025H109.46V48.6484Z" fill="black"/>
<path d="M109.46 64.8643H105.406V68.9183H109.46V64.8643Z" fill="black"/>
<path d="M109.46 68.9189H105.406V72.973H109.46V68.9189Z" fill="black"/>
<path d="M109.46 72.9727H105.406V77.0267H109.46V72.9727Z" fill="black"/>
<path d="M109.46 89.1885H105.406V93.2425H109.46V89.1885Z" fill="black"/>
<path d="M109.46 97.2969H105.406V101.351H109.46V97.2969Z" fill="black"/>
<path d="M109.46 105.405H105.406V109.459H109.46V105.405Z" fill="black"/>
<path d="M109.46 113.513H105.406V117.567H109.46V113.513Z" fill="black"/>
<path d="M109.46 125.675H105.406V129.729H109.46V125.675Z" fill="black"/>
<path d="M113.515 16.2158H109.461V20.2699H113.515V16.2158Z" fill="black"/>
<path d="M113.515 40.54H109.461V44.5941H113.515V40.54Z" fill="black"/>
<path d="M113.515 52.7021H109.461V56.7562H113.515V52.7021Z" fill="black"/>
<path d="M113.515 56.7568H109.461V60.8109H113.515V56.7568Z" fill="black"/>
<path d="M113.515 64.8643H109.461V68.9183H113.515V64.8643Z" fill="black"/>
<path d="M113.515 72.9727H109.461V77.0267H113.515V72.9727Z" fill="black"/>
<path d="M113.515 77.0264H109.461V81.0804H113.515V77.0264Z" fill="black"/>
<path d="M113.515 93.2432H109.461V97.2972H113.515V93.2432Z" fill="black"/>
<path d="M113.515 97.2969H109.461V101.351H113.515V97.2969Z" fill="black"/>
<path d="M113.515 113.513H109.461V117.567H113.515V113.513Z" fill="black"/>
<path d="M113.515 117.567H109.461V121.621H113.515V117.567Z" fill="black"/>
<path d="M113.515 121.621H109.461V125.675H113.515V121.621Z" fill="black"/>
<path d="M113.515 125.675H109.461V129.729H113.515V125.675Z" fill="black"/>
<path d="M117.568 16.2158H113.514V20.2699H117.568V16.2158Z" fill="black"/>
<path d="M117.568 24.3242H113.514V28.3783H117.568V24.3242Z" fill="black"/>
<path d="M117.568 28.3779H113.514V32.432H117.568V28.3779Z" fill="black"/>
<path d="M117.568 32.4316H113.514V36.4857H117.568V32.4316Z" fill="black"/>
<path d="M117.568 40.54H113.514V44.5941H117.568V40.54Z" fill="black"/>
<path d="M117.568 52.7021H113.514V56.7562H117.568V52.7021Z" fill="black"/>
<path d="M117.568 68.9189H113.514V72.973H117.568V68.9189Z" fill="black"/>
<path d="M117.568 77.0264H113.514V81.0804H117.568V77.0264Z" fill="black"/>
<path d="M117.568 85.1348H113.514V89.1888H117.568V85.1348Z" fill="black"/>
<path d="M117.568 93.2432H113.514V97.2972H117.568V93.2432Z" fill="black"/>
<path d="M117.568 97.2969H113.514V101.351H117.568V97.2969Z" fill="black"/>
<path d="M117.568 101.351H113.514V105.405H117.568V101.351Z" fill="black"/>
<path d="M117.568 105.405H113.514V109.459H117.568V105.405Z" fill="black"/>
<path d="M117.568 109.459H113.514V113.513H117.568V109.459Z" fill="black"/>
<path d="M117.568 113.513H113.514V117.567H117.568V113.513Z" fill="black"/>
<path d="M117.568 121.621H113.514V125.675H117.568V121.621Z" fill="black"/>
<path d="M117.568 129.729H113.514V133.784H117.568V129.729Z" fill="black"/>
<path d="M121.622 16.2158H117.568V20.2699H121.622V16.2158Z" fill="black"/>
<path d="M121.622 24.3242H117.568V28.3783H121.622V24.3242Z" fill="black"/>
<path d="M121.622 28.3779H117.568V32.432H121.622V28.3779Z" fill="black"/>
<path d="M121.622 32.4316H117.568V36.4857H121.622V32.4316Z" fill="black"/>
<path d="M121.622 40.54H117.568V44.5941H121.622V40.54Z" fill="black"/>
<path d="M121.622 60.8105H117.568V64.8646H121.622V60.8105Z" fill="black"/>
<path d="M121.622 68.9189H117.568V72.973H121.622V68.9189Z" fill="black"/>
<path d="M121.622 81.0811H117.568V85.1351H121.622V81.0811Z" fill="black"/>
<path d="M121.622 89.1885H117.568V93.2425H121.622V89.1885Z" fill="black"/>
<path d="M121.622 93.2432H117.568V97.2972H121.622V93.2432Z" fill="black"/>
<path d="M121.622 97.2969H117.568V101.351H121.622V97.2969Z" fill="black"/>
<path d="M121.622 101.351H117.568V105.405H121.622V101.351Z" fill="black"/>
<path d="M121.622 105.405H117.568V109.459H121.622V105.405Z" fill="black"/>
<path d="M121.622 113.513H117.568V117.567H121.622V113.513Z" fill="black"/>
<path d="M121.622 125.675H117.568V129.729H121.622V125.675Z" fill="black"/>
<path d="M121.622 129.729H117.568V133.784H121.622V129.729Z" fill="black"/>
<path d="M125.677 16.2158H121.623V20.2699H125.677V16.2158Z" fill="black"/>
<path d="M125.677 24.3242H121.623V28.3783H125.677V24.3242Z" fill="black"/>
<path d="M125.677 28.3779H121.623V32.432H125.677V28.3779Z" fill="black"/>
<path d="M125.677 32.4316H121.623V36.4857H125.677V32.4316Z" fill="black"/>
<path d="M125.677 40.54H121.623V44.5941H125.677V40.54Z" fill="black"/>
<path d="M125.677 52.7021H121.623V56.7562H125.677V52.7021Z" fill="black"/>
<path d="M125.677 56.7568H121.623V60.8109H125.677V56.7568Z" fill="black"/>
<path d="M125.677 68.9189H121.623V72.973H125.677V68.9189Z" fill="black"/>
<path d="M125.677 72.9727H121.623V77.0267H125.677V72.9727Z" fill="black"/>
<path d="M125.677 77.0264H121.623V81.0804H125.677V77.0264Z" fill="black"/>
<path d="M125.677 85.1348H121.623V89.1888H125.677V85.1348Z" fill="black"/>
<path d="M125.677 93.2432H121.623V97.2972H125.677V93.2432Z" fill="black"/>
<path d="M125.677 97.2969H121.623V101.351H125.677V97.2969Z" fill="black"/>
<path d="M125.677 121.621H121.623V125.675H125.677V121.621Z" fill="black"/>
<path d="M125.677 125.675H121.623V129.729H125.677V125.675Z" fill="black"/>
<path d="M129.73 16.2158H125.676V20.2699H129.73V16.2158Z" fill="black"/>
<path d="M129.73 40.54H125.676V44.5941H129.73V40.54Z" fill="black"/>
<path d="M129.73 52.7021H125.676V56.7562H129.73V52.7021Z" fill="black"/>
<path d="M129.73 68.9189H125.676V72.973H129.73V68.9189Z" fill="black"/>
<path d="M129.73 85.1348H125.676V89.1888H129.73V85.1348Z" fill="black"/>
<path d="M129.73 97.2969H125.676V101.351H129.73V97.2969Z" fill="black"/>
<path d="M129.73 109.459H125.676V113.513H129.73V109.459Z" fill="black"/>
<path d="M129.73 113.513H125.676V117.567H129.73V113.513Z" fill="black"/>
<path d="M129.73 121.621H125.676V125.675H129.73V121.621Z" fill="black"/>
<path d="M133.785 16.2158H129.73V20.2699H133.785V16.2158Z" fill="black"/>
<path d="M133.785 20.2695H129.73V24.3236H133.785V20.2695Z" fill="black"/>
<path d="M133.785 24.3242H129.73V28.3783H133.785V24.3242Z" fill="black"/>
<path d="M133.785 28.3779H129.73V32.432H133.785V28.3779Z" fill="black"/>
<path d="M133.785 32.4316H129.73V36.4857H133.785V32.4316Z" fill="black"/>
<path d="M133.785 36.4863H129.73V40.5404H133.785V36.4863Z" fill="black"/>
<path d="M133.785 40.54H129.73V44.5941H133.785V40.54Z" fill="black"/>
<path d="M133.785 48.6484H129.73V52.7025H133.785V48.6484Z" fill="black"/>
<path d="M133.785 60.8105H129.73V64.8646H133.785V60.8105Z" fill="black"/>
<path d="M133.785 64.8643H129.73V68.9183H133.785V64.8643Z" fill="black"/>
<path d="M133.785 68.9189H129.73V72.973H133.785V68.9189Z" fill="black"/>
<path d="M133.785 72.9727H129.73V77.0267H133.785V72.9727Z" fill="black"/>
<path d="M133.785 77.0264H129.73V81.0804H133.785V77.0264Z" fill="black"/>
<path d="M133.785 89.1885H129.73V93.2425H133.785V89.1885Z" fill="black"/>
<path d="M133.785 117.567H129.73V121.621H133.785V117.567Z" fill="black"/>
<path d="M133.785 121.621H129.73V125.675H133.785V121.621Z" fill="black"/>
<path d="M133.785 125.675H129.73V129.729H133.785V125.675Z" fill="black"/>
</g>
<defs>
<clipPath id="clip0_250_3">
<rect width="150" height="150" fill="white"/>
</clipPath>
</defs>
</svg>
