<svg width="92" height="20" viewBox="0 0 92 20" fill="none" xmlns="http://www.w3.org/2000/svg">
<g clip-path="url(#clip0_89_296)">
<path d="M42.8096 5.1695V17.9293H40.9775V6.99665H37.8867C35.2323 6.95933 33.1264 8.97706 33.0889 11.5631C33.1264 14.2251 35.2827 16.3818 37.9248 16.3707C38.5602 16.3817 39.1335 16.267 39.6816 16.0211L39.8564 15.939H40.0684V17.8218C39.3829 18.0755 38.6597 18.2085 37.8994 18.1949C34.2977 18.2111 31.3195 15.2469 31.2695 11.5621C31.3196 7.98779 34.2977 5.11978 37.8994 5.1695H42.8096ZM58.4375 4.95759C60.606 5.00731 62.526 6.01469 63.71 7.71735L62.2012 8.75837C61.3538 7.54318 59.9709 6.82216 58.4258 6.78474C55.7589 6.82203 53.5896 8.96818 53.6143 11.5816C53.6018 12.8629 54.0882 14.0665 54.998 14.9713C55.9078 15.8785 57.1173 16.3756 58.4258 16.3707C60.2951 16.3816 62.0026 15.2831 62.7627 13.5718L64.4326 14.316C63.3735 16.6884 61.0054 18.2109 58.4258 18.1949C56.6314 18.2023 54.9609 17.5154 53.7021 16.2603C52.4435 15.0076 51.7698 13.3414 51.7822 11.5816C51.7575 7.98272 54.724 5.00746 58.4375 4.95759ZM29.5244 13.8365C29.5368 14.9848 29.0883 16.06 28.2783 16.8629C27.4682 17.6621 26.3959 18.0952 25.2744 18.0865C23.9409 18.0976 22.744 17.4644 21.959 16.4703C21.8594 16.5957 21.7476 16.7174 21.6357 16.8316C20.8256 17.6506 19.7411 18.0964 18.582 18.0865C17.473 18.0952 16.4383 17.6652 15.6406 16.8736C14.8432 16.062 14.4075 14.9785 14.4199 13.8365V5.21931H16.252V13.8502C16.2395 14.5101 16.4882 15.1277 16.9492 15.5875C17.3854 16.0275 17.959 16.2672 18.582 16.2623C19.2549 16.2672 19.8778 16.015 20.3389 15.5504C20.7875 15.0992 21.0252 14.4973 21.0127 13.856V5.21931H22.832V13.817C22.8695 15.1763 23.9536 16.2721 25.2744 16.2623C25.9223 16.2672 26.5205 16.0213 26.9814 15.5679C27.4426 15.1106 27.7051 14.4951 27.7051 13.8365V5.21931L29.5244 5.21833V13.8365ZM47.2334 1.88825V5.1695H51.6084V6.99567H47.2334V14.0738C47.221 14.6268 47.4331 15.1575 47.832 15.5689C48.2682 16.0101 48.8415 16.256 49.4521 16.2623H52.0439V18.0865H49.4521C48.3305 18.0753 47.2837 17.6318 46.5234 16.8365C45.7758 16.071 45.3768 15.074 45.4141 14.0513V1.88825H47.2334ZM12.1016 5.28083V7.10798H3.57715C3.10345 7.10798 2.67945 7.29467 2.35547 7.61774C2.04411 7.92832 1.88189 8.33571 1.88184 8.78669C1.88184 9.26643 2.04384 9.70163 2.35547 10.0123C2.64203 10.2969 3.02849 10.4514 3.45215 10.4478H8.74902C10.8924 10.4652 12.5377 12.053 12.5752 14.1793C12.5378 16.2472 10.8177 17.9526 8.74902 17.98H0V16.1539H8.73633C9.82047 16.1403 10.7307 15.2369 10.7432 14.1793C10.7306 13.0832 9.88296 12.2818 8.74902 12.273H3.46484C2.55521 12.2805 1.69518 11.9362 1.05957 11.3013C0.399138 10.6402 0.0500341 9.73987 0.0625 8.78669C0.0500924 7.86587 0.399002 6.99613 1.04688 6.33747C1.7199 5.66645 2.60484 5.28083 3.56445 5.28083H12.1016ZM67.5361 1.88825V6.36189C68.5702 5.43018 69.891 4.93285 71.249 4.95759C74.3273 4.90786 76.8828 7.38177 76.9326 10.4986V17.9293H75.1006V10.5142C75.063 8.42142 73.3551 6.74757 71.249 6.78474C70.2646 6.76 69.3303 7.1456 68.6201 7.84138C67.9097 8.54982 67.5235 9.48793 67.5361 10.4859V17.9293H65.7031V1.88825H67.5361ZM75.4746 1.78864C76.2596 1.78875 76.9199 2.39821 76.9199 3.21833C76.9197 4.03837 76.2595 4.64693 75.4746 4.64704C74.6896 4.64704 74.0168 4.03844 74.0166 3.21833C74.0166 2.39814 74.6895 1.78864 75.4746 1.78864ZM75.4746 2.02497C74.814 2.02497 74.3027 2.53488 74.3027 3.21833C74.3029 3.9017 74.8142 4.41071 75.4746 4.41071C76.1225 4.4106 76.6336 3.90163 76.6338 3.21833C76.6338 2.53495 76.1225 2.02508 75.4746 2.02497ZM75.5488 2.39802C75.935 2.39802 76.1347 2.53439 76.1348 2.8697C76.1348 3.15561 75.9477 3.2921 75.7109 3.31696L76.1719 4.03767H75.8984L75.4619 3.32966H75.1758V4.03864H74.9131V2.39802H75.5488ZM75.1758 2.60896V3.11872H75.4746C75.6862 3.11872 75.873 3.10615 75.873 2.84528C75.873 2.64652 75.6862 2.60896 75.5117 2.60896H75.1758Z" fill="black"/>
<path d="M79.5869 5.54211H91.9998V17.929H79.5869V5.54211Z" fill="#FE0101"/>
<path d="M91.1403 10.1753H87.3514V6.41202H84.2233V10.1753H80.335V13.2983H84.2233V17.1746H87.3514V13.2983H91.1402L91.1403 10.1753Z" fill="#FFFEFF"/>
</g>
<defs>
<clipPath id="clip0_89_296">
<rect width="92" height="20" fill="white"/>
</clipPath>
</defs>
</svg>
