<svg width="154" height="154" viewBox="0 0 154 154" fill="none" xmlns="http://www.w3.org/2000/svg">
<path d="M76.8075 29.8647C80.6554 29.1514 82.5794 28.7947 84.4705 28.8938C86.1472 28.9816 87.7996 29.3328 89.367 29.9344C91.135 30.613 92.7476 31.7213 95.9729 33.9378L110.033 43.6006C113.258 45.8171 114.871 46.9254 116.138 48.3326C117.262 49.5803 118.182 50.9971 118.865 52.5309C119.635 54.2608 119.992 56.1848 120.705 60.0327L123.815 76.8075C124.528 80.6554 124.885 82.5794 124.785 84.4705C124.698 86.1472 124.346 87.7996 123.745 89.367C123.066 91.135 121.958 92.7476 119.741 95.9729L110.079 110.033C107.862 113.258 106.754 114.871 105.347 116.138C104.099 117.262 102.682 118.182 101.148 118.865C99.4184 119.635 97.4945 119.992 93.6466 120.705L76.8718 123.815C73.0239 124.528 71.0999 124.885 69.2088 124.785C67.5321 124.698 65.8797 124.346 64.3122 123.745C62.5443 123.066 60.9317 121.958 57.7064 119.741L43.646 110.079C40.4208 107.862 38.8082 106.754 37.541 105.347C36.4175 104.099 35.4974 102.682 34.8144 101.148C34.0441 99.4184 33.6875 97.4945 32.9742 93.6466L29.8647 76.8718C29.1514 73.0239 28.7947 71.0999 28.8938 69.2088C28.9816 67.5321 29.3328 65.8797 29.9344 64.3122C30.613 62.5443 31.7213 60.9317 33.9378 57.7064L43.6006 43.646C45.8171 40.4208 46.9254 38.8082 48.3326 37.541C49.5803 36.4175 50.9971 35.4974 52.5308 34.8144C54.2608 34.0441 56.1848 33.6875 60.0327 32.9742L76.8075 29.8647Z" fill="#D4E2AF"/>
<path d="M88.1447 79.5284L89.6129 79.135L91.5851 86.4954L90.1169 86.8888L88.1447 79.5284Z" fill="black"/>
<path d="M88.6487 87.2822L90.1169 86.8887L90.5103 88.357L89.0421 88.7504L88.6487 87.2822Z" fill="black"/>
<path d="M86.2831 78.4536L87.7513 78.0602L88.1447 79.5284L86.6765 79.9218L86.2831 78.4536Z" fill="black"/>
<path d="M87.5642 89.1464L89.0421 88.7504L89.4381 90.2282L87.9602 90.6242L87.5642 89.1464Z" fill="black"/>
<path d="M84.4092 77.3717L85.8871 76.9757L86.2831 78.4536L84.8052 78.8496L84.4092 77.3717Z" fill="black"/>
<path d="M80.5999 92.5964L87.9602 90.6242L88.3536 92.0924L80.9933 94.0646L80.5999 92.5964Z" fill="black"/>
<path d="M80.8949 87.7862L82.3631 87.3927L82.7565 88.861L81.2883 89.2544L80.8949 87.7862Z" fill="black"/>
<path d="M75.7677 68.6512L75.3717 67.1733L76.8399 66.7799L79.6015 77.0863L75.1873 78.2691L75.9766 81.2152L77.4449 80.8218L77.0489 79.3439L84.4092 77.3717L84.0158 75.9035L81.0794 76.6903L78.7138 67.8618L81.6502 67.075L81.2542 65.5971L82.7321 65.2011L82.3387 63.7329L83.8069 63.3395L83.0175 60.3934L78.6032 61.5762L78.9966 63.0444L77.5284 63.4378L77.9244 64.9157L76.4465 65.3117L76.0505 63.8338L74.5823 64.2272L74.1889 62.759L66.8286 64.7312L67.618 67.6773L69.0862 67.2839L69.4796 68.7521L73.8939 67.5693L74.2899 69.0472L75.7677 68.6512Z" fill="black"/>
<path d="M78.7357 91.512L80.2039 91.1185L80.5999 92.5964L79.1316 92.9898L78.7357 91.512Z" fill="black"/>
<path d="M76.7635 84.1516L78.2317 83.7582L79.4171 88.1821L77.9488 88.5755L76.7635 84.1516Z" fill="black"/>
<path d="M72.8216 69.4406L74.2898 69.0472L74.6833 70.5154L73.215 70.9088L72.8216 69.4406Z" fill="black"/>
<path d="M76.874 90.4372L74.9018 83.0768L73.424 83.4728L75.3962 90.8331L69.5137 92.4094L69.9071 93.8776L78.7357 91.512L78.3423 90.0437L76.874 90.4372Z" fill="black"/>
<path d="M74.5084 81.6086L75.9766 81.2152L76.3701 82.6834L74.9018 83.0768L74.5084 81.6086Z" fill="black"/>
<path d="M73.323 77.1847L74.7913 76.7912L75.1872 78.2691L73.719 78.6625L73.323 77.1847Z" fill="black"/>
<path d="M71.7468 71.3022L73.215 70.9088L73.6085 72.377L72.1402 72.7704L71.7468 71.3022Z" fill="black"/>
<path d="M70.6624 73.1664L72.1402 72.7704L72.5362 74.2482L71.0584 74.6442L70.6624 73.1664Z" fill="black"/>
<path d="M73.323 77.1847L72.9296 75.7165L71.4518 76.1124L71.0584 74.6442L69.5902 75.0376L69.9836 76.5059L65.5693 77.6887L65.9627 79.1569L73.323 77.1847Z" fill="black"/>
<path d="M68.3309 87.9951L69.7991 87.6017L70.1925 89.0699L68.7243 89.4633L68.3309 87.9951Z" fill="black"/>
<path d="M67.6424 91.3371L69.1203 90.9412L69.5137 92.4094L68.0358 92.8054L67.6424 91.3371Z" fill="black"/>
<path d="M65.6702 83.9768L67.1481 83.5808L68.3309 87.9951L66.853 88.3911L65.6702 83.9768Z" fill="black"/>
<path d="M64.4848 79.5528L65.9627 79.1569L66.3587 80.6347L64.8808 81.0307L64.4848 79.5528Z" fill="black"/>
<path d="M65.7782 90.2527L67.2464 89.8593L67.6424 91.3371L66.1742 91.7305L65.7782 90.2527Z" fill="black"/>
<path d="M63.4126 81.4241L64.8808 81.0307L65.2742 82.4989L63.806 82.8923L63.4126 81.4241Z" fill="black"/>
<path d="M62.3378 83.2857L63.806 82.8923L65.7782 90.2527L64.31 90.6461L62.3378 83.2857Z" fill="black"/>
</svg>
